<?xml version="1.0" standalone="no"?>
<!DOCTYPE svg PUBLIC "-//W3C//DTD SVG 20010904//EN"
 "http://www.w3.org/TR/2001/REC-SVG-20010904/DTD/svg10.dtd">
<svg version="1.0" xmlns="http://www.w3.org/2000/svg"
 width="1024.000000pt" height="1024.000000pt" viewBox="0 0 1024.000000 1024.000000"
 preserveAspectRatio="xMidYMid meet">
<metadata>
Created by potrace 1.11, written by Peter Selinger 2001-2013
</metadata>
<g transform="translate(0.000000,1024.000000) scale(0.100000,-0.100000)"
fill="#000000" stroke="none">
<path d="M0 5120 l0 -5120 5120 0 5120 0 0 5120 0 5120 -5120 0 -5120 0 0
-5120z m5845 3271 c549 -46 920 -132 1251 -291 272 -129 469 -296 600 -507
130 -208 204 -524 204 -875 0 -258 -28 -418 -104 -597 -73 -169 -182 -308
-346 -440 -182 -147 -362 -240 -639 -331 -185 -61 -183 -59 -76 -76 155 -24
365 -94 520 -172 435 -218 722 -579 821 -1032 16 -71 19 -127 19 -335 -1 -216
-4 -268 -24 -380 -62 -352 -167 -590 -354 -804 -313 -358 -870 -596 -1582
-675 -343 -38 -385 -39 -2207 -43 l-1798 -4 0 3291 0 3291 1788 -4 c1254 -3
1829 -8 1927 -16z"/>
<path d="M4130 6320 l0 -620 469 0 c258 0 515 5 572 10 368 37 594 199 650
465 19 89 16 267 -5 339 -74 251 -259 379 -598 416 -54 5 -318 10 -593 10
l-495 0 0 -620z"/>
<path d="M4130 3920 l0 -622 598 5 c633 4 685 8 860 57 281 79 423 264 424
554 1 122 -14 200 -55 286 -77 164 -255 265 -557 317 -78 13 -199 17 -682 20
l-588 5 0 -622z"/>
</g>
</svg>
